<svg xmlns="http://www.w3.org/2000/svg" xmlns:xlink="http://www.w3.org/1999/xlink" xmlns:lucid="lucid" width="621" height="161"><g transform="translate(-699.5 -414.83333333333326)" lucid:page-tab-id="0_0"><path d="M720 441.33a6 6 0 0 1 6-6h148a6 6 0 0 1 6 6v108a6 6 0 0 1-6 6H726a6 6 0 0 1-6-6z" stroke="#6f7681" fill="url(#a)"/><use xlink:href="#b" transform="matrix(1,0,0,1,732,447.33333333333326) translate(44.574074074074076 53.77777777777778)"/><path d="M881 495.33h242.12" stroke="#979ea8" fill="none"/><path d="M881 495.83h-.5v-1h.5z" stroke="#979ea8" stroke-width=".05" fill="#979ea8"/><path d="M1137.88 495.33l-14.26 4.64v-9.27z" stroke="#979ea8" fill="#979ea8"/><path d="M1140 441.33a6 6 0 0 1 6-6h148a6 6 0 0 1 6 6v108a6 6 0 0 1-6 6h-148a6 6 0 0 1-6-6z" stroke="#6f7681" fill="url(#c)"/><use xlink:href="#d" transform="matrix(1,0,0,1,1152,447.33333333333326) translate(45.160493827160494 53.77777777777778)"/><defs><linearGradient gradientUnits="userSpaceOnUse" id="a" x1="880" y1="435.33" x2="826.67" y2="555.33"><stop offset="0%" stop-color="#f7f8f9"/><stop offset="48.97%" stop-color="#ced4db"/><stop offset="100%" stop-color="#a5b0bd"/></linearGradient><path fill="#3a414a" d="M185-189c-5-48-123-54-124 2 14 75 158 14 163 119 3 78-121 87-175 55-17-10-28-26-33-46l33-7c5 56 141 63 141-1 0-78-155-14-162-118-5-82 145-84 179-34 5 7 8 16 11 25" id="e"/><path fill="#3a414a" d="M59-47c-2 24 18 29 38 22v24C64 9 27 4 27-40v-127H5v-23h24l9-43h21v43h35v23H59v120" id="f"/><path fill="#3a414a" d="M141-36C126-15 110 5 73 4 37 3 15-17 15-53c-1-64 63-63 125-63 3-35-9-54-41-54-24 1-41 7-42 31l-33-3c5-37 33-52 76-52 45 0 72 20 72 64v82c-1 20 7 32 28 27v20c-31 9-61-2-59-35zM48-53c0 20 12 33 32 33 41-3 63-29 60-74-43 2-92-5-92 41" id="g"/><path fill="#3a414a" d="M114-163C36-179 61-72 57 0H25l-1-190h30c1 12-1 29 2 39 6-27 23-49 58-41v29" id="h"/><g id="b"><use transform="matrix(0.06172839506172839,0,0,0.06172839506172839,0,0)" xlink:href="#e"/><use transform="matrix(0.06172839506172839,0,0,0.06172839506172839,14.814814814814813,0)" xlink:href="#f"/><use transform="matrix(0.06172839506172839,0,0,0.06172839506172839,20.98765432098765,0)" xlink:href="#g"/><use transform="matrix(0.06172839506172839,0,0,0.06172839506172839,33.33333333333333,0)" xlink:href="#h"/><use transform="matrix(0.06172839506172839,0,0,0.06172839506172839,40.679012345679006,0)" xlink:href="#f"/></g><linearGradient gradientUnits="userSpaceOnUse" id="c" x1="1300" y1="435.33" x2="1246.67" y2="555.33"><stop offset="0%" stop-color="#f7f8f9"/><stop offset="48.97%" stop-color="#ced4db"/><stop offset="100%" stop-color="#a5b0bd"/></linearGradient><path fill="#3a414a" d="M100-194c62-1 85 37 85 99 1 63-27 99-86 99S16-35 15-95c0-66 28-99 85-99zM99-20c44 1 53-31 53-75 0-43-8-75-51-75s-53 32-53 75 10 74 51 75" id="i"/><path fill="#3a414a" d="M115-194c55 1 70 41 70 98S169 2 115 4C84 4 66-9 55-30l1 105H24l-1-265h31l2 30c10-21 28-34 59-34zm-8 174c40 0 45-34 45-75s-6-73-45-74c-42 0-51 32-51 76 0 43 10 73 51 73" id="j"/><g id="d"><use transform="matrix(0.06172839506172839,0,0,0.06172839506172839,0,0)" xlink:href="#e"/><use transform="matrix(0.06172839506172839,0,0,0.06172839506172839,14.814814814814813,0)" xlink:href="#f"/><use transform="matrix(0.06172839506172839,0,0,0.06172839506172839,20.98765432098765,0)" xlink:href="#i"/><use transform="matrix(0.06172839506172839,0,0,0.06172839506172839,33.33333333333333,0)" xlink:href="#j"/></g></defs></g></svg>